<svg xmlns="http://www.w3.org/2000/svg" version="1.1" xmlns:xlink="http://www.w3.org/1999/xlink" xmlns:svgjs="http://svgjs.dev/svgjs" width="1500" height="1500" viewBox="0 0 1500 1500"><rect width="1500" height="1500" fill="#ffffff"></rect><g transform="matrix(0.6666666666666666,0,0,0.6666666666666666,249.39393939393938,438.5856950067477)"><svg viewBox="0 0 396 247" data-background-color="#ffffff" preserveAspectRatio="xMidYMid meet" height="935" width="1500" xmlns="http://www.w3.org/2000/svg" xmlns:xlink="http://www.w3.org/1999/xlink"><g id="tight-bounds" transform="matrix(1,0,0,1,0.2400000000000091,-0.09999999999999432)"><svg viewBox="0 0 395.52 247.2" height="247.2" width="395.52"><g><svg></svg></g><g><svg viewBox="0 0 395.52 247.2" height="247.2" width="395.52"><g transform="matrix(1,0,0,1,75.54432,79.66535951279062)"><svg viewBox="0 0 244.43135999999998 87.86928097441874" height="87.86928097441874" width="244.43135999999998"><g><svg viewBox="0 0 403.40054798057935 145.01623726079998" height="87.86928097441874" width="244.43135999999998"><g transform="matrix(1,0,0,1,0,42.95629904734329)"><svg viewBox="0 0 244.43135999999998 59.10363916611339" height="59.10363916611339" width="244.43135999999998"><g id="textblocktransform"><svg viewBox="0 0 244.43135999999998 59.10363916611339" height="59.10363916611339" width="244.43135999999998" id="textblock"><g><svg viewBox="0 0 244.43135999999998 59.10363916611339" height="59.10363916611339" width="244.43135999999998"><g transform="matrix(1,0,0,1,0,0)"><svg width="244.43135999999998" viewBox="0.6 -37.15 188.26000000000002 45.53" height="59.10363916611339" data-palette-color="#ffffff"><path d="M0.6-36.15L29.13-36.15 29.13-30.63 18.25-30.63 18.25 0 11.53 0 11.53-30.63 0.6-30.63 0.6-36.15ZM35.22 0L29.05 0 29.05-25.65 32.67-25.65Q33.62-25.65 34-25.3 34.37-24.95 34.5-24.1L34.5-24.1 34.87-21Q36.25-23.38 38.1-24.75 39.95-26.13 42.25-26.13L42.25-26.13Q44.15-26.13 45.4-25.25L45.4-25.25 44.6-20.63Q44.52-20.18 44.27-19.99 44.02-19.8 43.6-19.8L43.6-19.8Q43.22-19.8 42.57-19.98 41.92-20.15 40.85-20.15L40.85-20.15Q38.92-20.15 37.55-19.09 36.17-18.03 35.22-15.98L35.22-15.98 35.22 0ZM49.87-25.65L56.05-25.65 56.05 0 49.87 0 49.87-25.65ZM56.97-33.13L56.97-33.13Q56.97-32.33 56.65-31.63 56.32-30.93 55.78-30.4 55.25-29.88 54.52-29.56 53.8-29.25 52.97-29.25L52.97-29.25Q52.17-29.25 51.46-29.56 50.75-29.88 50.22-30.4 49.7-30.93 49.38-31.63 49.07-32.33 49.07-33.13L49.07-33.13Q49.07-33.95 49.38-34.68 49.7-35.4 50.22-35.93 50.75-36.45 51.46-36.76 52.17-37.08 52.97-37.08L52.97-37.08Q53.8-37.08 54.52-36.76 55.25-36.45 55.78-35.93 56.32-35.4 56.65-34.68 56.97-33.95 56.97-33.13ZM69.19 8.38L63.02 8.38 63.02-25.65 66.79-25.65Q67.39-25.65 67.82-25.38 68.24-25.1 68.37-24.53L68.37-24.53 68.87-22.15Q70.42-23.93 72.43-25.03 74.44-26.13 77.14-26.13L77.14-26.13Q79.24-26.13 80.98-25.25 82.72-24.38 83.98-22.71 85.24-21.05 85.93-18.61 86.62-16.18 86.62-13.03L86.62-13.03Q86.62-10.15 85.84-7.7 85.07-5.25 83.63-3.45 82.19-1.65 80.16-0.64 78.12 0.38 75.59 0.38L75.59 0.38Q73.42 0.38 71.91-0.29 70.39-0.95 69.19-2.13L69.19-2.13 69.19 8.38ZM75.02-21.25L75.02-21.25Q73.09-21.25 71.73-20.44 70.37-19.63 69.19-18.15L69.19-18.15 69.19-6.65Q70.24-5.35 71.48-4.84 72.72-4.33 74.14-4.33L74.14-4.33Q75.54-4.33 76.68-4.85 77.82-5.38 78.61-6.45 79.39-7.53 79.82-9.16 80.24-10.8 80.24-13.03L80.24-13.03Q80.24-15.28 79.88-16.84 79.52-18.4 78.84-19.38 78.17-20.35 77.2-20.8 76.24-21.25 75.02-21.25ZM105.29 0L91.64 0 91.64-36.15 104.12-36.15Q107.67-36.15 110.18-35.48 112.69-34.8 114.3-33.55 115.92-32.3 116.67-30.53 117.42-28.75 117.42-26.53L117.42-26.53Q117.42-25.25 117.04-24.09 116.67-22.93 115.88-21.91 115.09-20.9 113.88-20.08 112.67-19.25 110.99-18.68L110.99-18.68Q118.44-17 118.44-10.63L118.44-10.63Q118.44-8.33 117.57-6.38 116.69-4.42 115.02-3.01 113.34-1.6 110.89-0.8 108.44 0 105.29 0L105.29 0ZM105.17-15.85L98.37-15.85 98.37-5.25 105.19-5.25Q107.07-5.25 108.33-5.7 109.59-6.15 110.35-6.9 111.12-7.65 111.45-8.65 111.79-9.65 111.79-10.78L111.79-10.78Q111.79-11.95 111.42-12.89 111.04-13.83 110.24-14.49 109.44-15.15 108.19-15.5 106.94-15.85 105.17-15.85L105.17-15.85ZM98.37-30.95L98.37-20.5 103.74-20.5Q107.17-20.5 108.94-21.75 110.72-23 110.72-25.73L110.72-25.73Q110.72-28.55 109.12-29.75 107.52-30.95 104.12-30.95L104.12-30.95 98.37-30.95ZM124.26-37.15L130.44-37.15 130.44 0 124.26 0 124.26-37.15ZM137.81-25.65L143.99-25.65 143.99 0 137.81 0 137.81-25.65ZM144.91-33.13L144.91-33.13Q144.91-32.33 144.59-31.63 144.26-30.93 143.72-30.4 143.19-29.88 142.46-29.56 141.74-29.25 140.91-29.25L140.91-29.25Q140.11-29.25 139.4-29.56 138.69-29.88 138.16-30.4 137.64-30.93 137.32-31.63 137.01-32.33 137.01-33.13L137.01-33.13Q137.01-33.95 137.32-34.68 137.64-35.4 138.16-35.93 138.69-36.45 139.4-36.76 140.11-37.08 140.91-37.08L140.91-37.08Q141.74-37.08 142.46-36.76 143.19-36.45 143.72-35.93 144.26-35.4 144.59-34.68 144.91-33.95 144.91-33.13ZM159.38 0.4L159.38 0.4Q156.06 0.4 154.26-1.49 152.46-3.38 152.46-6.7L152.46-6.7 152.46-21.03 149.86-21.03Q149.36-21.03 149-21.35 148.63-21.68 148.63-22.33L148.63-22.33 148.63-24.78 152.76-25.45 154.06-32.45Q154.16-32.95 154.52-33.23 154.88-33.5 155.43-33.5L155.43-33.5 158.63-33.5 158.63-25.43 165.38-25.43 165.38-21.03 158.63-21.03 158.63-7.13Q158.63-5.93 159.23-5.25 159.83-4.58 160.83-4.58L160.83-4.58Q161.41-4.58 161.8-4.71 162.18-4.85 162.47-5 162.76-5.15 162.98-5.29 163.21-5.43 163.43-5.43L163.43-5.43Q163.71-5.43 163.88-5.29 164.06-5.15 164.26-4.88L164.26-4.88 166.11-1.88Q164.76-0.75 163.01-0.18 161.26 0.4 159.38 0.4ZM188.86-25.65L188.86-23.1Q188.86-22.45 188.62-21.84 188.38-21.23 188.06-20.8L188.06-20.8 175.86-4.75 188.51-4.75 188.51 0 168.68 0 168.68-2.58Q168.68-3 168.88-3.59 169.08-4.17 169.51-4.7L169.51-4.7 181.81-20.93 169.41-20.93 169.41-25.65 188.86-25.65Z" opacity="1" transform="matrix(1,0,0,1,0,0)" fill="#ffffff" class="wordmark-text-0" data-fill-palette-color="primary" id="text-0"></path></svg></g></svg></g></svg></g></svg></g><g transform="matrix(1,0,0,1,258.38431071977936,0)"><svg viewBox="0 0 145.01623726079998 145.01623726079998" height="145.01623726079998" width="145.01623726079998"><g><svg xmlns="http://www.w3.org/2000/svg" xmlns:xlink="http://www.w3.org/1999/xlink" version="1.1" x="0" y="0" viewBox="5 4.6 90 90" enable-background="new 0 0 100 100" xml:space="preserve" height="145.01623726079998" width="145.01623726079998" class="icon-icon-0" data-fill-palette-color="accent" id="icon-0"><path d="M50 4.6c-24.8 0-45 20.2-45 45 0 24.8 20.2 45 45 45 24.8 0 45-20.2 45-45C95 24.8 74.8 4.6 50 4.6zM66.6 53.3h-6.6l-10.3 14c-0.2 0.3-0.6 0.5-1 0.5h-0.2c-0.4 0-0.7-0.2-1-0.5-0.2-0.3-0.3-0.7-0.2-1l3.5-13-2.3 0h-7.8l-3.1 4.3c-0.2 0.3-0.6 0.5-1 0.5l-0.2 0c-0.4 0-0.7-0.2-1-0.5-0.2-0.3-0.3-0.7-0.2-1.1l2.3-6.9-2.4-6.9c-0.1-0.4 0-0.8 0.2-1.1 0.2-0.3 0.6-0.5 1-0.5h0.2c0.4 0 0.8 0.2 1 0.5l3.1 4.3h7.8 2.3l-3.5-13c-0.1-0.4 0-0.7 0.2-1 0.2-0.3 0.6-0.5 1-0.5h0.2c0.4 0 0.8 0.2 1 0.5l10.3 14h6.6c1.8 0 7.3 1.8 7.3 3.6S68.4 53.3 66.6 53.3z" fill="#ffffff" data-fill-palette-color="accent"></path></svg></g></svg></g></svg></g></svg></g><path d="M171.421 73.665L171.421 10.58 395.52 10.58 395.52 236.62 171.421 236.62 171.421 173.535 174.651 173.535 174.651 233.39 392.29 233.39 392.29 13.81 174.651 13.81 174.651 73.665Z" fill="#ffffff" stroke="transparent" data-fill-palette-color="tertiary"></path></svg></g><defs></defs></svg><rect width="395.52" height="247.2" fill="none" stroke="none" visibility="hidden"></rect></g></svg></g></svg>